<svg xmlns="http://www.w3.org/2000/svg" width="22.04" height="77.644" viewBox="0 0 22.04 77.644">
  <g id="attention_left" transform="translate(-62.617 0.679)">
    <g id="グループ_53" data-name="グループ 53" transform="translate(63)">
      <path id="線_36" data-name="線 36" d="M18.038,75.643A2,2,0,0,1,16.1,74.119l-1.388-5.665a2,2,0,0,1,3.885-.952l1.388,5.665a2,2,0,0,1-1.944,2.476ZM13.875,58.649a2,2,0,0,1-1.941-1.525L10.546,51.46a2,2,0,0,1,3.885-.952l1.388,5.665a2,2,0,0,1-1.944,2.476ZM9.712,41.654A2,2,0,0,1,7.771,40.13L6.383,34.465a2,2,0,1,1,3.885-.952l1.388,5.665a2,2,0,0,1-1.944,2.476ZM5.549,24.66a2,2,0,0,1-1.941-1.525L2.22,17.47a2,2,0,1,1,3.885-.952l1.388,5.665A2,2,0,0,1,5.549,24.66ZM1.386,7.665A2,2,0,0,1-.555,6.14L-1.943.476A2,2,0,0,1-.476-1.943,2,2,0,0,1,1.943-.476L3.33,5.189A2,2,0,0,1,1.386,7.665Z" transform="translate(1.617 1.322)" fill="#e0881d"/>
    </g>
  </g>
</svg>
