<svg xmlns="http://www.w3.org/2000/svg" width="22.04" height="77.644" viewBox="0 0 22.04 77.644">
  <g id="attention_right" transform="translate(1.528 2)">
    <g id="グループ_53" data-name="グループ 53" transform="translate(0 0)">
      <path id="線_36" data-name="線 36" d="M.474,75.643A2,2,0,0,1-1.47,73.167L-.082,67.5a2,2,0,1,1,3.885.952L2.415,74.119A2,2,0,0,1,.474,75.643ZM4.637,58.649a2,2,0,0,1-1.944-2.476l1.388-5.665a2,2,0,0,1,3.885.952L6.578,57.124A2,2,0,0,1,4.637,58.649ZM8.8,41.654a2,2,0,0,1-1.944-2.476l1.388-5.665a2,2,0,0,1,3.885.952l-1.388,5.665A2,2,0,0,1,8.8,41.654ZM12.963,24.66a2,2,0,0,1-1.944-2.476l1.388-5.665a2,2,0,1,1,3.885.952L14.9,23.135A2,2,0,0,1,12.963,24.66ZM17.126,7.665a2,2,0,0,1-1.944-2.476L16.57-.476a2,2,0,0,1,2.418-1.467A2,2,0,0,1,20.455.476L19.067,6.14A2,2,0,0,1,17.126,7.665Z" transform="translate(0)" fill="#e0881d"/>
    </g>
  </g>
</svg>
