<svg xmlns="http://www.w3.org/2000/svg" width="417.392" height="421.443" viewBox="0 0 417.392 421.443">
  <g id="icon_50UP" transform="translate(-855.608 -3120.557)">
    <g id="グループ_26" data-name="グループ 26" transform="translate(855.609 3120.557)" style="isolation: isolate">
      <path id="パス_68" data-name="パス 68" d="M208.694,421.443c-9.828,0-18.454-15.369-27.906-16.718-9.692-1.379-22.277,10.93-31.478,8.232-9.36-2.743-13.293-19.921-22.045-23.921-8.844-4.048-24.4,4.2-32.514-1.025-8.158-5.253-7.093-22.845-14.388-29.178-7.321-6.344-24.577-2.8-30.925-10.116-6.326-7.3-.383-23.881-5.633-32.039-5.224-8.11-22.786-9.555-26.83-18.4-4-8.744,6.378-22.966,3.635-32.323C17.914,256.756,1.473,250.4.09,240.709c-1.342-9.456,12.633-20.157,12.633-29.985S-1.252,190.19.09,180.734c1.382-9.692,17.824-16.047,20.519-25.248,2.743-9.36-7.635-23.578-3.635-32.326,4.044-8.844,21.61-10.289,26.83-18.4,5.253-8.158-.693-24.74,5.64-32.042s23.6-3.771,30.918-10.116c7.3-6.333,6.241-23.921,14.392-29.174,8.11-5.22,23.674,3.023,32.514-1.025,8.748-4,12.689-21.179,22.045-23.921,9.2-2.7,21.783,9.614,31.475,8.232C190.243,15.369,198.866,0,208.694,0s18.454,15.369,27.91,16.718c9.688,1.382,22.273-10.93,31.475-8.232,9.36,2.743,13.3,19.921,22.048,23.925,8.84,4.044,24.4-4.2,32.514,1.025,8.154,5.253,7.089,22.841,14.388,29.174,7.321,6.344,24.577,2.8,30.925,10.119,6.326,7.3.38,23.881,5.633,32.039,5.22,8.106,22.786,9.552,26.83,18.4,4,8.748-6.381,22.966-3.639,32.326,2.7,9.2,19.14,15.557,20.522,25.245,1.342,9.456-12.633,20.161-12.633,29.989s13.975,20.533,12.633,29.989c-1.382,9.688-17.824,16.043-20.522,25.245-2.743,9.36,7.638,23.582,3.635,32.326-4.044,8.844-21.606,10.289-26.83,18.4-5.253,8.158.693,24.736-5.633,32.039-6.348,7.314-23.6,3.771-30.922,10.116s-6.241,23.921-14.392,29.174c-8.114,5.224-23.674-3.019-32.518,1.025-8.748,4-12.685,21.178-22.045,23.925-9.2,2.695-21.783-9.614-31.475-8.236-9.456,1.349-18.078,16.718-27.906,16.718" transform="translate(-0.001)" fill="#ffea45"/>
    </g>
    <path id="パス_180" data-name="パス 180" d="M43.332,2.2C64.841,2.2,84-12.246,84-37.209c0-24.178-16.328-35.168-35.8-35.168a32.509,32.509,0,0,0-13.973,3.14l2.2-24.649H78.657V-113.2H16.485l-3.14,56.52,10.519,6.751c6.751-4.4,10.519-6.123,17.427-6.123,11.775,0,19.625,7.065,19.625,19.625,0,12.717-8.478,19.782-20.567,19.782-10.833,0-19-5.338-25.591-11.775L4.082-13.659C12.717-5.024,24.963,2.2,43.332,2.2Zm95.456,0c23.864,0,39.25-20.881,39.25-59.346,0-38.151-15.386-58.247-39.25-58.247S99.381-95.456,99.381-57.148C99.381-18.683,114.924,2.2,138.788,2.2Zm0-18.055c-10.048,0-17.584-9.734-17.584-41.291,0-31.4,7.536-40.192,17.584-40.192s17.427,8.792,17.427,40.192C156.215-25.591,148.836-15.857,138.788-15.857ZM206.146-28.5c10.6,0,18.1-8.7,18.1-23.6,0-14.8-7.5-23.3-18.1-23.3s-18,8.5-18,23.3C188.146-37.2,195.546-28.5,206.146-28.5Zm0-8.3c-4.3,0-7.6-4.4-7.6-15.3s3.3-15,7.6-15,7.7,4.1,7.7,15S210.446-36.8,206.146-36.8Zm2.5,38.2h8.7l40.2-76.8h-8.7Zm51.3,0c10.5,0,18.1-8.8,18.1-23.6,0-14.9-7.6-23.4-18.1-23.4s-18,8.5-18,23.4C241.946-7.4,249.446,1.4,259.946,1.4Zm0-8.4c-4.3,0-7.6-4.3-7.6-15.2s3.3-15.1,7.6-15.1,7.7,4.2,7.7,15.1S264.246-7,259.946-7Z" transform="translate(924 3337.962)" fill="#fff"/>
    <path id="パス_180_-_アウトライン" data-name="パス 180 - アウトライン" d="M138.788,3.7A35.657,35.657,0,0,1,121.859-.341,36.539,36.539,0,0,1,108.9-12.2a58.673,58.673,0,0,1-8.171-19.083,108.028,108.028,0,0,1-2.846-25.862,105.6,105.6,0,0,1,2.847-25.629,56.4,56.4,0,0,1,8.18-18.722,35.849,35.849,0,0,1,12.97-11.516,36.681,36.681,0,0,1,16.909-3.879,36.4,36.4,0,0,1,16.889,3.9,35.793,35.793,0,0,1,12.915,11.555,56.66,56.66,0,0,1,8.124,18.728,106.017,106.017,0,0,1,2.822,25.56,108.864,108.864,0,0,1-2.82,25.859A58.752,58.752,0,0,1,168.6-12.206,36.355,36.355,0,0,1,155.694-.342,35.521,35.521,0,0,1,138.788,3.7Zm0-117.593a33.715,33.715,0,0,0-15.541,3.549,32.883,32.883,0,0,0-11.885,10.572,53.433,53.433,0,0,0-7.726,17.731,102.62,102.62,0,0,0-2.756,24.9,105.051,105.051,0,0,0,2.757,25.139A55.708,55.708,0,0,0,111.373-13.9,33.574,33.574,0,0,0,123.267-2.99,32.691,32.691,0,0,0,138.788.7a32.556,32.556,0,0,0,15.495-3.687,33.391,33.391,0,0,0,11.84-10.906A55.786,55.786,0,0,0,173.8-32.007a105.886,105.886,0,0,0,2.733-25.141,103.039,103.039,0,0,0-2.732-24.832,53.694,53.694,0,0,0-7.674-17.74A32.826,32.826,0,0,0,154.3-110.326,33.431,33.431,0,0,0,138.788-113.9ZM43.332,3.7A63.3,63.3,0,0,1,30.356,2.4,53.718,53.718,0,0,1,19.443-1.124,52.689,52.689,0,0,1,10.4-6.318,58.868,58.868,0,0,1,3.021-12.6l-.9-.9L14.562-30.7l1.244,1.215a44.274,44.274,0,0,0,10.836,8.037,30.936,30.936,0,0,0,6.431,2.422,29.879,29.879,0,0,0,7.276.889c5.684,0,10.455-1.633,13.8-4.724a15.485,15.485,0,0,0,3.863-5.661,21.142,21.142,0,0,0,1.406-7.9A22.092,22.092,0,0,0,58.1-44.258a15.289,15.289,0,0,0-3.629-5.613c-3.151-3.061-7.709-4.678-13.183-4.678a22.548,22.548,0,0,0-8.251,1.32,43.6,43.6,0,0,0-8.357,4.56l-.813.529L11.8-55.887l3.267-58.81H80.157v22.311H37.8L35.939-71.561A32.51,32.51,0,0,1,48.2-73.877a45.528,45.528,0,0,1,14.276,2.17,33.772,33.772,0,0,1,11.917,6.724,31.1,31.1,0,0,1,8.133,11.5,42.382,42.382,0,0,1,2.97,16.269A42.8,42.8,0,0,1,82.04-19.918,37.458,37.458,0,0,1,72.733-7.03,40.662,40.662,0,0,1,59.27.962,46.7,46.7,0,0,1,43.332,3.7ZM6.055-13.827a55.234,55.234,0,0,0,6.091,5.068,49.683,49.683,0,0,0,8.524,4.9,50.716,50.716,0,0,0,10.3,3.328A60.3,60.3,0,0,0,43.332.7,43.7,43.7,0,0,0,58.249-1.859a37.677,37.677,0,0,0,12.476-7.4,34.477,34.477,0,0,0,8.566-11.863,39.827,39.827,0,0,0,3.2-16.087A39.412,39.412,0,0,0,79.754-52.33,28.123,28.123,0,0,0,72.4-62.737a30.793,30.793,0,0,0-10.868-6.121A42.54,42.54,0,0,0,48.2-70.877a30.977,30.977,0,0,0-13.377,3.016l-2.315,1,2.544-28.528H77.157V-111.7H17.9l-3.013,54.23,8.97,5.757c6.409-4.109,10.43-5.839,17.43-5.839,6.27,0,11.551,1.911,15.273,5.527,3.828,3.719,5.852,9.113,5.852,15.6,0,6.543-2.155,11.993-6.232,15.761-3.907,3.612-9.383,5.521-15.835,5.521a32.882,32.882,0,0,1-8.007-.98,33.937,33.937,0,0,1-7.056-2.656,45.534,45.534,0,0,1-10.318-7.37ZM259.946,2.9a17.947,17.947,0,0,1-7.9-1.756,17.734,17.734,0,0,1-6.22-5.066c-3.522-4.475-5.384-10.8-5.384-18.278,0-7.51,1.864-13.812,5.391-18.224a17.52,17.52,0,0,1,6.226-4.971,18.3,18.3,0,0,1,7.883-1.7,18.4,18.4,0,0,1,7.9,1.7,17.655,17.655,0,0,1,6.259,4.968c3.562,4.421,5.444,10.724,5.444,18.229,0,7.476-1.88,13.8-5.437,18.282a17.87,17.87,0,0,1-6.253,5.063A18.042,18.042,0,0,1,259.946,2.9Zm0-47a14.554,14.554,0,0,0-11.766,5.549c-3.1,3.874-4.734,9.528-4.734,16.351,0,6.8,1.639,12.481,4.741,16.422A14.481,14.481,0,0,0,259.946-.1a14.6,14.6,0,0,0,11.812-5.682c3.132-3.949,4.788-9.626,4.788-16.418,0-6.812-1.653-12.464-4.781-16.346A14.674,14.674,0,0,0,259.946-44.1Zm-41.692,47H206.168l41.77-79.8h12.086Zm-7.13-3h5.314l38.63-73.8h-5.314Zm48.822-5.4c-1.975,0-4.744-.743-6.722-4.281-1.578-2.823-2.378-7-2.378-12.419s.8-9.577,2.381-12.375a7.588,7.588,0,0,1,6.719-4.225,7.554,7.554,0,0,1,6.763,4.215c1.617,2.812,2.437,6.979,2.437,12.385s-.819,9.592-2.434,12.43a8.8,8.8,0,0,1-2.958,3.2A7.108,7.108,0,0,1,259.946-5.5Zm0-30.3a4.562,4.562,0,0,0-4.106,2.7c-1.323,2.342-1.994,6.01-1.994,10.9s.672,8.585,2,10.956c1.032,1.847,2.374,2.744,4.1,2.744a4.708,4.708,0,0,0,4.159-2.755c1.335-2.346,2.041-6.131,2.041-10.945,0-4.875-.686-8.539-2.038-10.89A4.646,4.646,0,0,0,259.946-35.8ZM138.788-14.357c-6.075,0-10.754-3.246-13.906-9.649a47.169,47.169,0,0,1-3.825-13.138,128.155,128.155,0,0,1-1.354-20,124.312,124.312,0,0,1,1.354-19.771A44.112,44.112,0,0,1,124.893-89.7a17.358,17.358,0,0,1,6.117-7.047,14.512,14.512,0,0,1,7.777-2.09,14.4,14.4,0,0,1,7.757,2.092,17.24,17.24,0,0,1,6.063,7.051,44.412,44.412,0,0,1,3.778,12.782,126.435,126.435,0,0,1,1.329,19.767,130.348,130.348,0,0,1-1.329,20,47.5,47.5,0,0,1-3.768,13.135C149.5-17.606,144.85-14.357,138.788-14.357Zm0-81.483a11.409,11.409,0,0,0-6.2,1.639,14.434,14.434,0,0,0-5.03,5.866,41.2,41.2,0,0,0-3.544,11.9A121.37,121.37,0,0,0,122.7-57.148a125.21,125.21,0,0,0,1.315,19.526,44.251,44.251,0,0,0,3.554,12.291,15.394,15.394,0,0,0,5.057,6.21,10.786,10.786,0,0,0,6.157,1.764,10.681,10.681,0,0,0,6.129-1.761,15.28,15.28,0,0,0,5-6.206,44.581,44.581,0,0,0,3.5-12.294,127.4,127.4,0,0,0,1.291-19.53,123.5,123.5,0,0,0-1.291-19.287,41.5,41.5,0,0,0-3.493-11.906,14.317,14.317,0,0,0-4.976-5.862A11.3,11.3,0,0,0,138.788-95.84ZM206.146-27a18.176,18.176,0,0,1-7.933-1.74,17.543,17.543,0,0,1-6.221-5.045c-3.5-4.447-5.346-10.78-5.346-18.315,0-7.48,1.851-13.752,5.353-18.136a17.432,17.432,0,0,1,6.224-4.962,18.454,18.454,0,0,1,7.923-1.7,18.552,18.552,0,0,1,7.937,1.7,17.568,17.568,0,0,1,6.257,4.958c3.537,4.394,5.407,10.667,5.407,18.141,0,7.528-1.867,13.862-5.4,18.319a17.678,17.678,0,0,1-6.254,5.042A18.272,18.272,0,0,1,206.146-27Zm0-46.9a14.581,14.581,0,0,0-11.8,5.536c-3.073,3.847-4.7,9.471-4.7,16.264,0,6.855,1.627,12.547,4.7,16.46a14.5,14.5,0,0,0,11.8,5.64A14.614,14.614,0,0,0,218-35.644c3.108-3.921,4.751-9.612,4.751-16.456,0-6.782-1.64-12.4-4.743-16.259A14.7,14.7,0,0,0,206.146-73.9Zm0,38.6a6.968,6.968,0,0,1-3.808-1.093,8.809,8.809,0,0,1-2.917-3.243c-1.576-2.848-2.375-7.042-2.375-12.464s.8-9.558,2.385-12.331a7.58,7.58,0,0,1,6.715-4.169,7.559,7.559,0,0,1,6.759,4.159c1.619,2.787,2.441,6.939,2.441,12.341s-.818,9.611-2.431,12.474a8.9,8.9,0,0,1-2.952,3.237A7.04,7.04,0,0,1,206.146-35.3Zm0-30.3a4.557,4.557,0,0,0-4.11,2.656c-1.321,2.314-1.99,5.963-1.99,10.844,0,4.839.692,8.647,2,11.011,1.038,1.877,2.379,2.789,4.1,2.789s3.109-.942,4.156-2.8c1.337-2.374,2.044-6.178,2.044-11,0-4.866-.684-8.511-2.034-10.834A4.641,4.641,0,0,0,206.146-65.6Z" transform="translate(924 3337.962)"/>
    <path id="パス_179" data-name="パス 179" d="M43.125,1.61c20.815,0,32.89-11.615,32.89-39.905v-46.92H59.685V-36.8c0,17.71-6.44,23.69-16.56,23.69-9.89,0-16.1-5.98-16.1-23.69V-85.215H10.005V-38.3C10.005-10.005,22.425,1.61,43.125,1.61ZM96.485,0H113.5V-30.245H124.89c18.285,0,32.89-8.74,32.89-28.175,0-20.125-14.49-26.795-33.35-26.795H96.485ZM113.5-43.7V-71.645h9.66c11.73,0,17.94,3.335,17.94,13.225,0,9.775-5.635,14.72-17.365,14.72Z" transform="translate(941.24 3451.962)" fill="#e01d1d"/>
    <g id="Icon_feather-arrow-up" data-name="Icon feather-arrow-up" transform="translate(1108.26 3366.891)">
      <path id="パス_66" data-name="パス 66" d="M18,84.5a5,5,0,0,1-5-5V7.5a5,5,0,0,1,10,0v72A5,5,0,0,1,18,84.5Z" transform="translate(25.5 0)" fill="#e01d1d"/>
      <path id="パス_67" data-name="パス 67" d="M79.5,48.5a4.984,4.984,0,0,1-3.536-1.464L43.5,14.571,11.036,47.036a5,5,0,0,1-7.071-7.071l36-36a5,5,0,0,1,7.071,0l36,36A5,5,0,0,1,79.5,48.5Z" transform="translate(0 0)" fill="#e01d1d"/>
    </g>
  </g>
</svg>
