<svg xmlns="http://www.w3.org/2000/svg" width="119.145" height="119.147" viewBox="0 0 119.145 119.147">
  <g id="icon_point" transform="translate(-0.001 0)">
    <path id="パス_69" data-name="パス 69" d="M107.336,95.185a59.579,59.579,0,1,0-12.153,12.151l17.482,5.331Z" transform="translate(0)"/>
    <path id="パス_181" data-name="パス 181" d="M9.325-17.5a7.552,7.552,0,0,1,5.113,1.575,5.579,5.579,0,0,1,1.813,4.45,6.009,6.009,0,0,1-1.812,4.662A7.289,7.289,0,0,1,9.325-5.15H5.5V0H2.15V-17.5ZM9.15-8.1a4.508,4.508,0,0,0,2.913-.825,2.975,2.975,0,0,0,1.012-2.45,2.872,2.872,0,0,0-1.012-2.4,4.609,4.609,0,0,0-2.913-.8H5.5V-8.1Zm17.825-9.625a9.67,9.67,0,0,1,4.738,1.175,8.75,8.75,0,0,1,3.362,3.225A8.7,8.7,0,0,1,36.3-8.775a8.767,8.767,0,0,1-1.225,4.563A8.906,8.906,0,0,1,31.713-.95,9.51,9.51,0,0,1,26.975.25a9.51,9.51,0,0,1-4.738-1.2,8.906,8.906,0,0,1-3.362-3.263A8.767,8.767,0,0,1,17.65-8.775a8.7,8.7,0,0,1,1.225-4.55,8.75,8.75,0,0,1,3.362-3.225A9.67,9.67,0,0,1,26.975-17.725Zm.05,3a5.885,5.885,0,0,0-2.975.787,5.853,5.853,0,0,0-2.175,2.15,5.84,5.84,0,0,0-.8,3.012,5.837,5.837,0,0,0,.813,3.025,6.046,6.046,0,0,0,2.175,2.175,5.748,5.748,0,0,0,2.962.8,5.637,5.637,0,0,0,2.925-.8A5.882,5.882,0,0,0,32.088-5.75a5.98,5.98,0,0,0,.787-3.025,5.912,5.912,0,0,0-.787-3.012,5.814,5.814,0,0,0-2.138-2.15A5.7,5.7,0,0,0,27.025-14.725ZM39.25-17.5H42.6V0H39.25Zm19.85,0h3.25V0H59.175l-9-12.05V0H46.9V-17.5h3.175L59.1-5.425Zm5.6,0H78.975v2.975h-5.45V0H70.15V-14.525H64.7Z" transform="translate(19.146 70.429)" fill="#fff"/>
  </g>
</svg>
