<svg xmlns="http://www.w3.org/2000/svg" width="31.5" height="30" viewBox="0 0 31.5 30">
  <g id="icon_check" transform="translate(-3 -3)">
    <path id="パス_17" data-name="パス 17" d="M18,22.5a1.5,1.5,0,0,1-1.061-.439l-4.5-4.5a1.5,1.5,0,0,1,2.121-2.121L18,18.879,31.939,4.939a1.5,1.5,0,1,1,2.121,2.121l-15,15A1.5,1.5,0,0,1,18,22.5Z" fill="#e01d1d"/>
    <path id="パス_18" data-name="パス 18" d="M28.5,33H7.5A4.505,4.505,0,0,1,3,28.5V7.5A4.505,4.505,0,0,1,7.5,3H24a1.5,1.5,0,0,1,0,3H7.5A1.5,1.5,0,0,0,6,7.5v21A1.5,1.5,0,0,0,7.5,30h21A1.5,1.5,0,0,0,30,28.5V18a1.5,1.5,0,0,1,3,0V28.5A4.505,4.505,0,0,1,28.5,33Z" fill="#e01d1d"/>
  </g>
</svg>
