<svg xmlns="http://www.w3.org/2000/svg" width="150" height="49.122" viewBox="0 0 150 49.122">
  <g id="logo_white" transform="translate(0 0)">
    <path id="パス_1" data-name="パス 1" d="M27.129,49.121c-9.851,0-17.907-3.757-22.683-10.578C-.668,31.24-1.407,21.022,2.419,10.51a1.749,1.749,0,1,1,3.287,1.2C2.225,21.27,2.8,30.088,7.311,36.537c4.1,5.859,11.141,9.086,19.818,9.086,8.4,0,17.654-3.052,26.046-8.592q2.107-1.391,4.1-2.967A28.374,28.374,0,0,1,61.99,5.018C65.423,1.169,71.35-1.437,75.327.862A5.912,5.912,0,0,1,78.059,4.63c1.3,5.037-2.038,12.505-3.986,15.751A61.392,61.392,0,0,1,61.6,35.029a19.321,19.321,0,0,0,3.9,4.847,1.749,1.749,0,1,1-2.333,2.605,22.46,22.46,0,0,1-4.294-5.229q-1.84,1.42-3.773,2.7c-8.958,5.914-18.892,9.171-27.973,9.171M71.893,3.493c-2.2,0-5.193,1.5-7.293,3.853a25.006,25.006,0,0,0-5.8,13.878,25.581,25.581,0,0,0,1.279,10.484A57.532,57.532,0,0,0,71.074,18.58c2.4-3.994,4.4-9.977,3.6-13.075a2.353,2.353,0,0,0-1.1-1.614,3.342,3.342,0,0,0-1.683-.4" transform="translate(0 0)" fill="#fff"/>
    <path id="パス_2" data-name="パス 2" d="M185.269,11.026a4.915,4.915,0,0,1-3.579-1.438,4.792,4.792,0,0,1-1.466-3.565,4.959,4.959,0,0,1,5-5.017,4.55,4.55,0,0,1,3.39,1.376.237.237,0,0,1,0,.362l-.931.987a.191.191,0,0,1-.306.028,3.279,3.279,0,0,0-2.14-.806,2.884,2.884,0,0,0-2.141.876,3,3,0,0,0-.861,2.2,2.955,2.955,0,0,0,.876,2.189,3.025,3.025,0,0,0,2.224.869,2.648,2.648,0,0,0,1.779-.569,2.034,2.034,0,0,0,.736-1.431h-2.515a.184.184,0,0,1-.208-.209V5.523a.184.184,0,0,1,.208-.208h4.2a.184.184,0,0,1,.209.208v.9a4.653,4.653,0,0,1-1.216,3.286,4.228,4.228,0,0,1-3.259,1.313" transform="translate(-82.209 -0.459)" fill="#fff"/>
    <path id="パス_3" data-name="パス 3" d="M211.36,9.574a5.051,5.051,0,0,1-7.088,0,4.821,4.821,0,0,1-1.459-3.551,4.837,4.837,0,0,1,1.459-3.565,5.051,5.051,0,0,1,7.088,0,4.835,4.835,0,0,1,1.459,3.565,4.819,4.819,0,0,1-1.459,3.551M205.683,8.2a3.036,3.036,0,0,0,4.267,0,3,3,0,0,0,.855-2.182,3.018,3.018,0,0,0-.855-2.2,3.028,3.028,0,0,0-4.267.008,3.022,3.022,0,0,0-.855,2.189,3,3,0,0,0,.855,2.181" transform="translate(-92.513 -0.459)" fill="#fff"/>
    <path id="パス_4" data-name="パス 4" d="M234.844,9.574a5.051,5.051,0,0,1-7.088,0A4.821,4.821,0,0,1,226.3,6.023a4.837,4.837,0,0,1,1.459-3.565,5.051,5.051,0,0,1,7.088,0A4.835,4.835,0,0,1,236.3,6.023a4.819,4.819,0,0,1-1.459,3.551M229.167,8.2a3.036,3.036,0,0,0,4.267,0,3,3,0,0,0,.855-2.182,3.018,3.018,0,0,0-.855-2.2,3.028,3.028,0,0,0-4.267.008,3.022,3.022,0,0,0-.855,2.189,3,3,0,0,0,.855,2.181" transform="translate(-103.226 -0.459)" fill="#fff"/>
    <path id="パス_5" data-name="パス 5" d="M251.662,10.939a.184.184,0,0,1-.208-.209V1.419a.184.184,0,0,1,.208-.209h2.863a4.823,4.823,0,0,1,3.662,1.362,4.865,4.865,0,0,1,1.3,3.5,4.867,4.867,0,0,1-1.3,3.5,4.823,4.823,0,0,1-3.662,1.362Zm1.779-1.765H254.5a2.922,2.922,0,0,0,2.224-.792,3.233,3.233,0,0,0,.75-2.308,3.231,3.231,0,0,0-.75-2.306,2.922,2.922,0,0,0-2.224-.792h-1.056Z" transform="translate(-114.701 -0.552)" fill="#fff"/>
    <path id="パス_6" data-name="パス 6" d="M184.141,45.082a.184.184,0,0,1-.208-.208V35.562a.184.184,0,0,1,.208-.208h6.651c.148,0,.222.07.222.208V36.91c0,.139-.075.208-.222.208H185.92V39.2h4.691c.148,0,.222.069.222.208V40.76q0,.208-.222.208H185.92v3.905a.184.184,0,0,1-.208.208Z" transform="translate(-83.901 -16.127)" fill="#fff"/>
    <path id="パス_7" data-name="パス 7" d="M211.628,43.718a5.068,5.068,0,1,1,1.459-3.551,4.837,4.837,0,0,1-1.459,3.551m-5.677-1.369a3.036,3.036,0,0,0,4.266,0,3.23,3.23,0,0,0,0-4.378,3.028,3.028,0,0,0-4.266.008,3.22,3.22,0,0,0,0,4.37" transform="translate(-92.636 -16.034)" fill="#fff"/>
    <path id="パス_8" data-name="パス 8" d="M235.112,43.718a5.068,5.068,0,1,1,1.459-3.551,4.837,4.837,0,0,1-1.459,3.551m-5.677-1.369a3.036,3.036,0,0,0,4.266,0,3.23,3.23,0,0,0,0-4.378,3.028,3.028,0,0,0-4.266.008,3.22,3.22,0,0,0,0,4.37" transform="translate(-103.348 -16.034)" fill="#fff"/>
    <path id="パス_9" data-name="パス 9" d="M251.662,45.083a.184.184,0,0,1-.208-.209V35.563a.184.184,0,0,1,.208-.209h2.863a4.872,4.872,0,1,1,0,9.729Zm1.779-1.765H254.5a2.922,2.922,0,0,0,2.224-.792,3.233,3.233,0,0,0,.75-2.308,3.231,3.231,0,0,0-.75-2.306,2.922,2.922,0,0,0-2.224-.792h-1.056Z" transform="translate(-114.701 -16.127)" fill="#fff"/>
    <path id="パス_10" data-name="パス 10" d="M172.1,79.227a.184.184,0,0,1-.208-.209V69.707a.184.184,0,0,1,.208-.209h2.863a4.872,4.872,0,1,1,0,9.729Zm1.779-1.765h1.056a2.922,2.922,0,0,0,2.224-.792,3.921,3.921,0,0,0,0-4.614,2.922,2.922,0,0,0-2.224-.792h-1.056Z" transform="translate(-78.41 -31.701)" fill="#fff"/>
    <path id="パス_11" data-name="パス 11" d="M193.362,79.226a.184.184,0,0,1-.208-.208V69.706a.184.184,0,0,1,.208-.208h4.947a.184.184,0,0,1,.208.208v1.348a.184.184,0,0,1-.208.208h-3.168v2.154h2.988a.184.184,0,0,1,.208.208v1.349a.184.184,0,0,1-.208.208h-2.988v2.279h3.168a.184.184,0,0,1,.208.209v1.348a.184.184,0,0,1-.208.208Z" transform="translate(-88.107 -31.701)" fill="#fff"/>
    <path id="パス_12" data-name="パス 12" d="M212.923,79.3a3.933,3.933,0,0,1-1.869-.431,3.67,3.67,0,0,1-1.286-1.084.22.22,0,0,1,.028-.306l.807-.931a.2.2,0,0,1,.319-.028,2.733,2.733,0,0,0,1.96.959,1.671,1.671,0,0,0,.994-.264.9.9,0,0,0,.368-.778.855.855,0,0,0-.271-.681,3.72,3.72,0,0,0-.9-.514l-1.181-.556a2.847,2.847,0,0,1-1.946-2.655,2.5,2.5,0,0,1,.855-2.008,3.193,3.193,0,0,1,2.147-.729,3.768,3.768,0,0,1,2.849,1.279.226.226,0,0,1,.014.32l-.792.958a.2.2,0,0,1-.306.056,2.664,2.664,0,0,0-1.7-.792,1.309,1.309,0,0,0-.841.25.827.827,0,0,0-.313.681.791.791,0,0,0,.25.625,3.791,3.791,0,0,0,.889.514l1,.458a7.523,7.523,0,0,1,.792.424,4.57,4.57,0,0,1,.674.535,2.089,2.089,0,0,1,.528.792,2.929,2.929,0,0,1,.174,1.043,2.528,2.528,0,0,1-.952,2.126,3.646,3.646,0,0,1-2.3.736" transform="translate(-95.664 -31.608)" fill="#fff"/>
    <rect id="長方形_1" data-name="長方形 1" width="1.987" height="9.728" rx="0.383" transform="translate(123.911 37.797)" fill="#fff"/>
    <path id="パス_13" data-name="パス 13" d="M242.578,79.314A4.915,4.915,0,0,1,239,77.876a5.084,5.084,0,0,1-.007-7.136,4.849,4.849,0,0,1,3.544-1.446,4.55,4.55,0,0,1,3.39,1.376.237.237,0,0,1,0,.362l-.931.987a.191.191,0,0,1-.306.028,3.278,3.278,0,0,0-2.14-.806,2.883,2.883,0,0,0-2.141.876,3,3,0,0,0-.861,2.2,2.955,2.955,0,0,0,.876,2.189,3.025,3.025,0,0,0,2.224.869,2.648,2.648,0,0,0,1.779-.569,2.034,2.034,0,0,0,.736-1.431h-2.515a.184.184,0,0,1-.208-.209V73.811a.184.184,0,0,1,.208-.209h4.2a.185.185,0,0,1,.209.209v.9A4.653,4.653,0,0,1,245.837,78a4.228,4.228,0,0,1-3.259,1.313" transform="translate(-108.351 -31.608)" fill="#fff"/>
    <path id="パス_14" data-name="パス 14" d="M269.087,69.5a.184.184,0,0,1,.208.208v9.312a.184.184,0,0,1-.208.208h-1.849a.273.273,0,0,1-.25-.139l-3.474-6.407v6.337a.184.184,0,0,1-.208.208h-1.571a.184.184,0,0,1-.208-.208V69.706a.184.184,0,0,1,.208-.208h1.848a.274.274,0,0,1,.25.139l3.475,6.407V69.706a.184.184,0,0,1,.208-.208Z" transform="translate(-119.296 -31.701)" fill="#fff"/>
    <rect id="長方形_2" data-name="長方形 2" width="150" height="49.121" transform="translate(0 0)" fill="none"/>
  </g>
</svg>
