<svg xmlns="http://www.w3.org/2000/svg" width="576" height="56" viewBox="0 0 576 56">
  <g id="logo_grittoday" transform="translate(142 10.366)">
    <path id="パス_80" data-name="パス 80" d="M69.6,33.8,63.477,21.723A11.408,11.408,0,0,0,67.834,17.7a11.3,11.3,0,0,0,1.249-2.755,10.764,10.764,0,0,0,.447-3.109,11.272,11.272,0,0,0-3.31-8.008A11.592,11.592,0,0,0,62.606,1.4,11.09,11.09,0,0,0,58.155.5H43.741C43.049.5,42.7.873,42.7,1.61V34.464a.965.965,0,0,0,.282.766,1.1,1.1,0,0,0,.754.248h4.733q1.084,0,1.084-1.013V23.325h5.194c.508,0,.909,0,1.2-.012s.563-.012.814-.012l5.7,11.3a1.113,1.113,0,0,0,1.13.872h5.464q.826,0,.825-.707a1.1,1.1,0,0,0-.118-.494A1.864,1.864,0,0,1,69.6,33.8M62.193,13.876a5.464,5.464,0,0,1-1.023,1.693,5,5,0,0,1-1.59,1.186,5.479,5.479,0,0,1-2.037.517q-.472.047-.884.047h-7.1V6.391H54.2q.848,0,1.637.012t1.613.035a5.283,5.283,0,0,1,2.05.541A5.481,5.481,0,0,1,61.121,8.2a5.546,5.546,0,0,1,1.06,1.7,5.275,5.275,0,0,1,.377,1.962,5.556,5.556,0,0,1-.366,2.009" transform="translate(-0.729 -0.009)" fill="#1a1311"/>
    <path id="パス_81" data-name="パス 81" d="M83.461.5H78.79a.953.953,0,0,0-.774.307,1.092,1.092,0,0,0-.259.73v32.9a.915.915,0,0,0,1.032,1.037h4.671q1.1,0,1.1-1.037V1.54a.916.916,0,0,0-.352-.754A1.182,1.182,0,0,0,83.461.5" transform="translate(-1.327 -0.009)" fill="#1a1311"/>
    <path id="パス_82" data-name="パス 82" d="M116.9.5H92.127a1.1,1.1,0,0,0-.777.283.972.972,0,0,0-.308.754V5.661a1.167,1.167,0,0,0,.308.883,1.072,1.072,0,0,0,.777.294H101.1V34.394a1,1,0,0,0,.342.778,1.114,1.114,0,0,0,.765.306h4.64a1.029,1.029,0,0,0,.812-.33,1.1,1.1,0,0,0,.295-.754V6.838H116.9a1.052,1.052,0,0,0,.86-.353,1.251,1.251,0,0,0,.295-.824V1.54a1.038,1.038,0,0,0-.389-.778A1.232,1.232,0,0,0,116.9.5" transform="translate(-1.554 -0.009)" fill="#1a1311"/>
    <path id="パス_83" data-name="パス 83" d="M35.476,14.646l-14.72-.055a.914.914,0,0,0-1.036,1.032v4.671q0,1.1,1.036,1.1h8.386a11.765,11.765,0,0,1-.973,2.317,11.118,11.118,0,0,1-7.037,5.495,11.547,11.547,0,0,1-2.348.338q-.439.034-.884.034a11.153,11.153,0,0,1-2.188-.215,10.6,10.6,0,0,1-2.217-.692A11.443,11.443,0,0,1,9.88,26.2a11.82,11.82,0,0,1-2.449-3.673,11.3,11.3,0,0,1-.907-4.511,11.891,11.891,0,0,1,3.2-8.149,11.116,11.116,0,0,1,8.218-3.486,12.056,12.056,0,0,1,3.791.612,12.811,12.811,0,0,1,3.346,1.649,1.269,1.269,0,0,0,.412.224,1.234,1.234,0,0,0,.341.058c.11,0,.267-.1.471-.295a9.891,9.891,0,0,0,.683-.74q.377-.448.778-1t.719-1.072q.317-.516.53-.93a1.543,1.543,0,0,0,.211-.6,1.222,1.222,0,0,0-.505-.871,7.733,7.733,0,0,0-1.237-.872,15.087,15.087,0,0,0-1.543-.778q-.812-.352-1.4-.589A17.839,17.839,0,0,0,21.327.295,19.026,19.026,0,0,0,17.995,0,17.589,17.589,0,0,0,13.2.648,18.231,18.231,0,0,0,8.9,2.473,17.862,17.862,0,0,0,5.265,5.3,18.382,18.382,0,0,0,2.449,8.951,18.128,18.128,0,0,0,.636,22.81,17.593,17.593,0,0,0,2.449,27.1a18.362,18.362,0,0,0,6.441,6.44,17.541,17.541,0,0,0,4.3,1.814,17.893,17.893,0,0,0,4.781.636c.505,0,1.011-.022,1.517-.062l.018.03a18.449,18.449,0,0,0,2.384-.379c.359-.078.718-.147,1.073-.248A17.861,17.861,0,0,0,27.2,33.52a18.045,18.045,0,0,0,2.252-1.584,18.739,18.739,0,0,0,1.43-1.289,17.627,17.627,0,0,0,2.893-3.877,19.09,19.09,0,0,0,1.359-3.057,17.8,17.8,0,0,0,.787-3.239q.08-.63.166-1.511a14.92,14.92,0,0,0,.069-1.727,7.783,7.783,0,0,0-.161-1.5c-.1-.439-.243-1.087-.517-1.087" fill="#1a1311"/>
    <path id="パス_84" data-name="パス 84" d="M157.732.515H132.955a1.1,1.1,0,0,0-.777.283.974.974,0,0,0-.307.754V5.673a1.17,1.17,0,0,0,.307.883,1.072,1.072,0,0,0,.777.294h8.973V34.406a1,1,0,0,0,.342.778,1.115,1.115,0,0,0,.766.306h4.639a1.031,1.031,0,0,0,.813-.33,1.1,1.1,0,0,0,.294-.754V6.85h8.95a1.054,1.054,0,0,0,.86-.353,1.25,1.25,0,0,0,.294-.824V1.552A1.04,1.04,0,0,0,158.5.774a1.234,1.234,0,0,0-.766-.259" transform="translate(-2.25 -0.009)" fill="#1a1311"/>
    <path id="パス_85" data-name="パス 85" d="M195.349,8.939a17.974,17.974,0,0,0-6.465-6.466,18.428,18.428,0,0,0-4.3-1.813,17.942,17.942,0,0,0-9.562,0,18.428,18.428,0,0,0-4.3,1.813,17.532,17.532,0,0,0-3.639,2.815,18.378,18.378,0,0,0-2.814,3.651,17.747,17.747,0,0,0-1.814,4.309,17.988,17.988,0,0,0,8.243,20.3,18.18,18.18,0,0,0,13.884,1.813,18.027,18.027,0,0,0,7.949-4.6,17.579,17.579,0,0,0,2.814-3.639,18.492,18.492,0,0,0,1.814-4.288,17.455,17.455,0,0,0,.648-4.781,17.72,17.72,0,0,0-.648-4.8,18.387,18.387,0,0,0-1.814-4.309M190.1,22.434a11.182,11.182,0,0,1-2.367,3.6,11.3,11.3,0,0,1-3.544,2.426,11.28,11.28,0,0,1-8.809,0,11.147,11.147,0,0,1-3.533-2.426,11.282,11.282,0,0,1-2.355-3.6,11.9,11.9,0,0,1,0-8.879,11.434,11.434,0,0,1,2.355-3.615A11.068,11.068,0,0,1,175.377,7.5a11.28,11.28,0,0,1,8.809,0,11.163,11.163,0,0,1,5.911,6.053,11.888,11.888,0,0,1,0,8.879" transform="translate(-2.761)" fill="#1a1311"/>
    <path id="パス_86" data-name="パス 86" d="M229.528,5.591a17.649,17.649,0,0,0-5.645-3.721A17.954,17.954,0,0,0,216.895.515H205.581A.968.968,0,0,0,204.5,1.622V34.5a.845.845,0,0,0,.329.8,1.494,1.494,0,0,0,.755.189h11.314a18.218,18.218,0,0,0,9-2.343,17.261,17.261,0,0,0,6.364-6.218,17.516,17.516,0,0,0,1.792-4.192,17.2,17.2,0,0,0,.636-4.7,17.187,17.187,0,0,0-1.378-6.889,17.419,17.419,0,0,0-3.783-5.558m-2.457,16.572a10.735,10.735,0,0,1-2.261,3.479,11,11,0,0,1-3.427,2.369,11.286,11.286,0,0,1-4.309.955q-1.766.071-3.534.07H211.3V6.968h5.346a12.023,12.023,0,0,1,4.357.79,10.892,10.892,0,0,1,3.58,2.227A10.421,10.421,0,0,1,227,13.44a10.96,10.96,0,0,1,.884,4.444,11.222,11.222,0,0,1-.813,4.28" transform="translate(-3.49 -0.009)" fill="#1a1311"/>
    <path id="パス_87" data-name="パス 87" d="M269.294,34.242,256.859,3.131l-.777-1.837A3.012,3.012,0,0,0,255.717.8,1.028,1.028,0,0,0,254.9.515h-3.791a1.162,1.162,0,0,0-.86.319,1.4,1.4,0,0,0-.388.577L237.169,33.018c-.079.22-.168.463-.27.729a7.462,7.462,0,0,0-.271.872.716.716,0,0,0-.024.212.542.542,0,0,0,.271.494,1.367,1.367,0,0,0,.719.165h4.71a1.219,1.219,0,0,0,1.225-.872q.4-1.084.977-2.531t1.189-3.1l2.262-6.053q1.271-3.225,2.531-6.711t2.532-6.737l4.969,13.449,2.237,6.053q.425,1.154.872,2.284t.895,2.262l.425,1.083a1.56,1.56,0,0,0,.471.66,1.319,1.319,0,0,0,.8.212h4.64q1.035,0,1.035-.707a1.479,1.479,0,0,0-.035-.295,1.548,1.548,0,0,1-.034-.247" transform="translate(-4.038 -0.009)" fill="#1a1311"/>
    <path id="パス_88" data-name="パス 88" d="M296.518.515h-6.5a2.89,2.89,0,0,0-.519.153,1.316,1.316,0,0,0-.447.6l-7.135,13.495h-.047l-7.089-13.4c-.111-.2-.2-.361-.272-.471a.776.776,0,0,0-.21-.235.474.474,0,0,0-.224-.083,2.223,2.223,0,0,1-.307-.06h-6.453c-.3,0-.447.118-.447.353a1.232,1.232,0,0,0,.07.342.83.83,0,0,0,.189.342l11.328,19.477V34.383q0,1.107.99,1.107h4.8q1.059,0,1.06-1.107v-13.4q2.9-4.827,5.7-9.739T296.66,1.5a1.1,1.1,0,0,0,.306-.59c0-.266-.148-.4-.447-.4" transform="translate(-4.554 -0.009)" fill="#1a1311"/>
    <rect id="長方形_27" data-name="長方形 27" width="292.411" height="36" transform="translate(0 0)" fill="none"/>
    <rect id="長方形_23548" data-name="長方形 23548" width="576" height="56" transform="translate(-142 -10.366)" fill="none"/>
  </g>
</svg>
