<svg xmlns="http://www.w3.org/2000/svg" width="79.591" height="79.591" viewBox="0 0 79.591 79.591">
  <g id="point01" transform="translate(0 0)">
    <path id="パス_20" data-name="パス 20" d="M67.938,11.656A39.8,39.8,0,1,0,63.584,71.7l11.678,3.561L71.7,63.584a39.8,39.8,0,0,0-3.763-51.928" fill="#ffea45"/>
    <rect id="長方形_10" data-name="長方形 10" width="79.59" height="79.59" transform="translate(0 0)" fill="none"/>
    <path id="パス_175" data-name="パス 175" d="M-15.012-8.4a3.625,3.625,0,0,1,2.454.756,2.678,2.678,0,0,1,.87,2.136,2.884,2.884,0,0,1-.87,2.238,3.5,3.5,0,0,1-2.454.8h-1.836V0h-1.608V-8.4ZM-15.1-3.888a2.164,2.164,0,0,0,1.4-.4,1.428,1.428,0,0,0,.486-1.176A1.379,1.379,0,0,0-13.7-6.612,2.212,2.212,0,0,0-15.1-7h-1.752v3.108Zm8.8-4.62a4.642,4.642,0,0,1,2.274.564A4.2,4.2,0,0,1-2.412-6.4a4.177,4.177,0,0,1,.588,2.184,4.208,4.208,0,0,1-.588,2.19A4.275,4.275,0,0,1-4.026-.456,4.565,4.565,0,0,1-6.3.12,4.565,4.565,0,0,1-8.574-.456a4.275,4.275,0,0,1-1.614-1.566,4.208,4.208,0,0,1-.588-2.19A4.177,4.177,0,0,1-10.188-6.4,4.2,4.2,0,0,1-8.574-7.944,4.642,4.642,0,0,1-6.3-8.508Zm.024,1.44A2.825,2.825,0,0,0-7.7-6.69,2.809,2.809,0,0,0-8.748-5.658a2.8,2.8,0,0,0-.384,1.446,2.8,2.8,0,0,0,.39,1.452A2.9,2.9,0,0,0-7.7-1.716a2.759,2.759,0,0,0,1.422.384,2.706,2.706,0,0,0,1.4-.384A2.823,2.823,0,0,0-3.846-2.76a2.87,2.87,0,0,0,.378-1.452,2.838,2.838,0,0,0-.378-1.446A2.791,2.791,0,0,0-4.872-6.69,2.738,2.738,0,0,0-6.276-7.068ZM-.168-8.4H1.44V0H-.168ZM9.6-8.4h1.56V0H9.636L5.316-5.784V0H3.744V-8.4H5.268L9.6-2.6Zm2.928,0H19.38v1.428H16.764V0h-1.62V-6.972H12.528Z" transform="translate(39.739 28)"/>
    <path id="パス_176" data-name="パス 176" d="M-7.6-28.24q5.8,0,8.92,3.68T4.44-14q0,6.84-3.12,10.52T-7.6.2q-5.8,0-8.92-3.68T-19.64-14q0-6.88,3.12-10.56T-7.6-28.24Zm0,4.24a5.487,5.487,0,0,0-4.92,2.42q-1.6,2.42-1.6,7.58,0,5.12,1.6,7.56A5.473,5.473,0,0,0-7.6-4,5.473,5.473,0,0,0-2.68-6.44q1.6-2.44,1.6-7.56,0-5.16-1.6-7.58A5.487,5.487,0,0,0-7.6-24ZM6.52-28H17.76V0H12.4V-23.28H6.52Z" transform="translate(38.739 62)"/>
  </g>
</svg>
