<svg xmlns="http://www.w3.org/2000/svg" width="244.013" height="14.481" viewBox="0 0 244.013 14.481">
  <g id="グループ_530" data-name="グループ 530" transform="translate(-1008.329 -1645.592)">
    <path id="パス_550" data-name="パス 550" d="M1016.106,1660.073c-4.259,0-7.777-2.852-7.777-7.278a7.124,7.124,0,0,1,7.37-7.2,9.518,9.518,0,0,1,6.666,2.833l-1.5,1.278a7.712,7.712,0,0,0-5.056-2.093,5.215,5.215,0,0,0-5.5,5.223c0,3.351,2.815,5.2,5.926,5.2a6.426,6.426,0,0,0,5.018-2.222l1.334,1.444A8.155,8.155,0,0,1,1016.106,1660.073Z" fill="#060001"/>
    <path id="パス_551" data-name="パス 551" d="M1072.648,1659.9v-13.815h1.982V1659.9Z" transform="translate(-20.49 -0.156)" fill="#060001"/>
    <path id="パス_552" data-name="パス 552" d="M1095.37,1660.073c-4.259,0-7.778-2.852-7.778-7.278a7.124,7.124,0,0,1,7.371-7.2,9.519,9.519,0,0,1,6.667,2.833l-1.5,1.278a7.711,7.711,0,0,0-5.056-2.093,5.215,5.215,0,0,0-5.5,5.223c0,3.351,2.815,5.2,5.926,5.2a6.426,6.426,0,0,0,5.018-2.222l1.333,1.444A8.156,8.156,0,0,1,1095.37,1660.073Z" transform="translate(-25.251)" fill="#060001"/>
    <path id="パス_553" data-name="パス 553" d="M1174.132,1659.9l-1.982-4.5h-6.2l-2.055,4.5h-2.185l6.277-13.8h2.223l6.184,13.8Zm-5.074-11.352-2.185,4.815h4.37Z" transform="translate(-48.861 -0.165)" fill="#060001"/>
    <path id="パス_554" data-name="パス 554" d="M1204,1659.9l-8.333-10.519V1659.9h-1.982v-13.815h1.963l8.315,10.556v-10.556H1206V1659.9Z" transform="translate(-59.05 -0.156)" fill="#060001"/>
    <path id="パス_555" data-name="パス 555" d="M1236.149,1658.063a5.446,5.446,0,0,1-4.407,1.833h-6.722v-13.815h6.667a6.617,6.617,0,0,1,6.519,6.852A7.642,7.642,0,0,1,1236.149,1658.063Zm-4.444-9.963H1227v9.778h4.741a4.514,4.514,0,0,0,4.425-4.8C1236.167,1650.414,1234.557,1648.1,1231.7,1648.1Z" transform="translate(-69.031 -0.156)" fill="#060001"/>
    <path id="パス_556" data-name="パス 556" d="M1300.9,1659.9v-13.815h1.982V1659.9Z" transform="translate(-93.205 -0.156)" fill="#060001"/>
    <path id="パス_557" data-name="パス 557" d="M1327.711,1659.9l-8.333-10.519V1659.9H1317.4v-13.815h1.963l8.315,10.556v-10.556h2.037V1659.9Z" transform="translate(-98.459 -0.156)" fill="#060001"/>
    <path id="パス_558" data-name="パス 558" d="M1356.21,1659.767a9.154,9.154,0,0,1-2.464.315,7.275,7.275,0,0,1-7.574-7.259c0-4.259,3.463-7.2,7.612-7.2a7.612,7.612,0,0,1,5.87,2.519l-1.389,1.425a5.365,5.365,0,0,0-4.37-1.944c-3.093,0-5.759,1.964-5.759,5.223s2.63,5.222,5.722,5.222a6.578,6.578,0,0,0,1.592-.185c.964-.241,2.538-.944,2.538-2.129v-1.555H1353.6v-2h6.37v3.685C1359.968,1657.952,1358.006,1659.267,1356.21,1659.767Z" transform="translate(-107.627 -0.009)" fill="#060001"/>
    <path id="パス_559" data-name="パス 559" d="M1051.151,1659.9v-6.185h-8.3v6.185h-2v-13.815h2v5.593h8.3v-5.593h2.019V1659.9Z" transform="translate(-10.362 -0.156)" fill="#060001"/>
    <path id="パス_560" data-name="パス 560" d="M1133.425,1646.081h-2.307a1.283,1.283,0,0,0-.854.326l-7.714,6.88v-7.206h-2V1659.9h2v-2.92a1.794,1.794,0,0,1,.573-1.314l2.867-2.666,5.1,6.9h2.333l-5.943-8.287Z" transform="translate(-35.75 -0.156)" fill="#060001"/>
    <path id="パス_561" data-name="パス 561" d="M1283.557,1646.081h-2.307a1.284,1.284,0,0,0-.855.326l-7.715,6.88v-7.206h-2V1659.9h2v-2.92a1.8,1.8,0,0,1,.573-1.314l2.867-2.666,5.1,6.9h2.333l-5.944-8.287Z" transform="translate(-83.577 -0.156)" fill="#060001"/>
  </g>
</svg>
