<svg xmlns="http://www.w3.org/2000/svg" width="153.623" height="18.914" viewBox="0 0 153.623 18.914">
  <g id="グループ_525" data-name="グループ 525" transform="translate(-1073.935 -969.831)">
    <path id="パス_541" data-name="パス 541" d="M1119.313,987.7l-3.217-6.347a6.034,6.034,0,0,0,1.287-.91,5.929,5.929,0,0,0,1.658-2.654,5.655,5.655,0,0,0,.235-1.634,5.924,5.924,0,0,0-1.739-4.207,6.088,6.088,0,0,0-1.9-1.275,5.838,5.838,0,0,0-2.339-.47h-7.573q-.544,0-.544.581v17.261a.508.508,0,0,0,.148.4.582.582,0,0,0,.4.13h2.487q.569,0,.569-.532V982.19h2.729q.4,0,.63-.006t.428-.006l2.994,5.939a.584.584,0,0,0,.594.458h2.871q.433,0,.433-.371a.575.575,0,0,0-.062-.26A.963.963,0,0,1,1119.313,987.7Zm-3.892-10.47a2.865,2.865,0,0,1-.537.889,2.634,2.634,0,0,1-.836.623,2.864,2.864,0,0,1-1.071.272,4.548,4.548,0,0,1-.464.025h-3.731v-5.741h2.438q.446,0,.86.006t.848.018a2.774,2.774,0,0,1,1.077.284,2.876,2.876,0,0,1,.853.641,2.914,2.914,0,0,1,.557.9,2.775,2.775,0,0,1,.2,1.03A2.908,2.908,0,0,1,1115.421,977.226Z" transform="translate(-9.195 -0.109)"/>
    <path id="パス_542" data-name="パス 542" d="M1133.829,970.2h-2.454a.5.5,0,0,0-.406.16.574.574,0,0,0-.135.384V988.03a.48.48,0,0,0,.542.545h2.454c.386,0,.58-.181.58-.545V970.744a.482.482,0,0,0-.186-.4A.619.619,0,0,0,1133.829,970.2Z" transform="translate(-16.743 -0.109)"/>
    <path id="パス_543" data-name="パス 543" d="M1154.139,970.2h-13.016a.579.579,0,0,0-.408.148.511.511,0,0,0-.161.4v2.166a.612.612,0,0,0,.161.464.565.565,0,0,0,.408.155h4.714V988a.522.522,0,0,0,.18.409.586.586,0,0,0,.4.161h2.438a.542.542,0,0,0,.427-.174.576.576,0,0,0,.155-.4V973.528h4.7a.553.553,0,0,0,.452-.186.659.659,0,0,0,.155-.433v-2.166a.55.55,0,0,0-.2-.409A.653.653,0,0,0,1154.139,970.2Z" transform="translate(-19.604 -0.109)"/>
    <path id="パス_544" data-name="パス 544" d="M1092.573,977.526l-7.733-.029a.481.481,0,0,0-.545.542v2.454q0,.58.545.58h4.406a6.161,6.161,0,0,1-.512,1.217,5.834,5.834,0,0,1-3.7,2.886,6.072,6.072,0,0,1-1.234.178q-.231.018-.464.018a5.882,5.882,0,0,1-1.15-.113,5.642,5.642,0,0,1-1.165-.364,6.018,6.018,0,0,1-1.9-1.3,6.233,6.233,0,0,1-1.287-1.93,5.946,5.946,0,0,1-.476-2.37,6.253,6.253,0,0,1,1.683-4.281,5.838,5.838,0,0,1,4.318-1.831,6.33,6.33,0,0,1,1.992.322,6.72,6.72,0,0,1,1.757.866.671.671,0,0,0,.217.118.655.655,0,0,0,.179.03q.087,0,.247-.155a4.982,4.982,0,0,0,.359-.39q.2-.235.409-.526c.14-.193.266-.382.377-.563s.2-.344.278-.489a.805.805,0,0,0,.111-.315.644.644,0,0,0-.266-.458,4.031,4.031,0,0,0-.649-.458,7.926,7.926,0,0,0-.811-.409q-.426-.185-.736-.309a9.393,9.393,0,0,0-1.689-.464,9.948,9.948,0,0,0-1.751-.155,9.217,9.217,0,0,0-2.518.341,9.559,9.559,0,0,0-2.258.958,9.384,9.384,0,0,0-1.912,1.486,9.7,9.7,0,0,0-1.479,1.917,9.53,9.53,0,0,0-.953,7.282,9.265,9.265,0,0,0,.953,2.252,9.634,9.634,0,0,0,3.384,3.384,9.2,9.2,0,0,0,2.258.953,9.4,9.4,0,0,0,2.512.335c.266,0,.531-.012.8-.033l.009.016a9.785,9.785,0,0,0,1.253-.2c.188-.042.377-.078.563-.131a9.25,9.25,0,0,0,3.409-1.783,9.65,9.65,0,0,0,.751-.677,9.227,9.227,0,0,0,1.52-2.037,9.988,9.988,0,0,0,.714-1.606,9.3,9.3,0,0,0,.413-1.7q.042-.33.088-.794a7.9,7.9,0,0,0,.036-.907,4.064,4.064,0,0,0-.085-.79C1092.793,977.866,1092.717,977.526,1092.573,977.526Z" transform="translate(0 0)"/>
    <path id="パス_545" data-name="パス 545" d="M1184.015,970.208H1171a.574.574,0,0,0-.408.149.511.511,0,0,0-.161.4v2.166a.613.613,0,0,0,.161.464.563.563,0,0,0,.408.155h4.714v14.477a.526.526,0,0,0,.179.409.589.589,0,0,0,.4.161h2.438a.543.543,0,0,0,.427-.174.576.576,0,0,0,.155-.4V973.537h4.7a.557.557,0,0,0,.452-.186.66.66,0,0,0,.155-.433v-2.166a.549.549,0,0,0-.2-.409A.65.65,0,0,0,1184.015,970.208Z" transform="translate(-28.396 -0.111)"/>
    <path id="パス_546" data-name="パス 546" d="M1209.959,974.53a9.438,9.438,0,0,0-3.4-3.4,9.673,9.673,0,0,0-2.258-.953,9.428,9.428,0,0,0-5.024,0,9.676,9.676,0,0,0-2.258.953,9.218,9.218,0,0,0-1.911,1.479,9.649,9.649,0,0,0-1.479,1.917,9.434,9.434,0,0,0,1.466,11.452,9.5,9.5,0,0,0,1.912,1.479,9.552,9.552,0,0,0,7.295.953,9.47,9.47,0,0,0,4.176-2.419,9.238,9.238,0,0,0,1.479-1.912,9.719,9.719,0,0,0,.953-2.252,9.181,9.181,0,0,0,.34-2.512,9.309,9.309,0,0,0-.34-2.524A9.676,9.676,0,0,0,1209.959,974.53Zm-2.76,7.09a5.876,5.876,0,0,1-1.243,1.893,5.935,5.935,0,0,1-1.862,1.275,5.932,5.932,0,0,1-4.628,0,5.852,5.852,0,0,1-1.856-1.275,5.933,5.933,0,0,1-1.237-1.893,6.119,6.119,0,0,1,1.237-6.564,5.8,5.8,0,0,1,1.856-1.281,5.931,5.931,0,0,1,4.628,0,5.867,5.867,0,0,1,3.105,3.18,6.248,6.248,0,0,1,0,4.665Z" transform="translate(-34.844 -0.003)"/>
    <path id="パス_547" data-name="パス 547" d="M1236.722,972.875a9.275,9.275,0,0,0-2.965-1.955,9.431,9.431,0,0,0-3.672-.712h-5.944a.509.509,0,0,0-.57.581v17.273a.445.445,0,0,0,.173.421.789.789,0,0,0,.4.1h5.944a9.575,9.575,0,0,0,4.73-1.231,9.1,9.1,0,0,0,1.888-1.416,9,9,0,0,0,1.455-1.85,9.174,9.174,0,0,0,.941-2.2,9.35,9.35,0,0,0-.39-6.088A9.141,9.141,0,0,0,1236.722,972.875Zm-1.291,8.707a5.661,5.661,0,0,1-1.188,1.828,5.788,5.788,0,0,1-1.8,1.245,5.953,5.953,0,0,1-2.264.5q-.927.037-1.856.037h-1.175V973.6h2.809a6.309,6.309,0,0,1,2.289.415,5.718,5.718,0,0,1,1.881,1.17,5.466,5.466,0,0,1,1.268,1.814,5.751,5.751,0,0,1,.464,2.335A5.9,5.9,0,0,1,1235.431,981.582Z" transform="translate(-44.033 -0.111)"/>
    <path id="パス_548" data-name="パス 548" d="M1264.239,987.927l-6.533-16.345-.409-.966a1.584,1.584,0,0,0-.192-.26.538.538,0,0,0-.427-.149h-1.992a.611.611,0,0,0-.452.168.732.732,0,0,0-.2.3l-6.67,16.605c-.041.116-.088.243-.142.383a3.9,3.9,0,0,0-.143.458.369.369,0,0,0-.012.112.284.284,0,0,0,.142.26.719.719,0,0,0,.378.087h2.475a.64.64,0,0,0,.643-.458q.211-.568.514-1.33t.625-1.627l1.188-3.18q.668-1.695,1.33-3.526t1.33-3.539l2.61,7.066,1.176,3.18q.222.607.457,1.2t.47,1.188l.223.569a.82.82,0,0,0,.248.346.69.69,0,0,0,.421.112h2.438q.544,0,.544-.371a.8.8,0,0,0-.018-.155A.813.813,0,0,1,1264.239,987.927Z" transform="translate(-50.947 -0.111)"/>
    <path id="パス_549" data-name="パス 549" d="M1284.786,970.208h-3.415a1.463,1.463,0,0,0-.272.081.691.691,0,0,0-.235.315l-3.749,7.09h-.025l-3.724-7.04c-.058-.107-.106-.19-.143-.248a.422.422,0,0,0-.112-.123.242.242,0,0,0-.117-.043,1.135,1.135,0,0,1-.161-.032h-3.39q-.235,0-.235.186a.652.652,0,0,0,.037.18.429.429,0,0,0,.1.179l5.951,10.233V988q0,.581.52.581h2.524q.557,0,.557-.581v-7.04q1.521-2.536,2.995-5.117t2.969-5.117a.577.577,0,0,0,.161-.31C1285.022,970.279,1284.943,970.208,1284.786,970.208Z" transform="translate(-57.463 -0.111)"/>
  </g>
</svg>
