<svg xmlns="http://www.w3.org/2000/svg" width="41.126" height="41.126" viewBox="0 0 41.126 41.126">
  <g id="グループ_871" data-name="グループ 871" transform="translate(-565.218 -225.437)">
    <circle id="楕円形_85" data-name="楕円形 85" cx="20.563" cy="20.563" r="20.563" transform="translate(565.218 225.437)" fill="#fe4731"/>
    <path id="パス_478" data-name="パス 478" d="M1069.525,213.647c-3.588,0-6.521-1.368-8.261-3.852-1.863-2.66-2.132-6.381-.738-10.21a.637.637,0,1,1,1.2.436c-1.268,3.483-1.06,6.695.584,9.044a8.448,8.448,0,0,0,7.217,3.309,17.67,17.67,0,0,0,9.486-3.129q.767-.507,1.494-1.081a10.334,10.334,0,0,1,1.717-10.579c1.25-1.4,3.409-2.35,4.857-1.513a2.153,2.153,0,0,1,1,1.372c.475,1.835-.742,4.555-1.452,5.736a22.356,22.356,0,0,1-4.543,5.335,7,7,0,0,0,1.422,1.765.637.637,0,0,1-.85.949,8.2,8.2,0,0,1-1.564-1.9q-.67.517-1.374.982A18.944,18.944,0,0,1,1069.525,213.647Zm16.3-16.617a3.993,3.993,0,0,0-2.656,1.4,9.1,9.1,0,0,0-2.111,5.054,9.309,9.309,0,0,0,.466,3.818,20.934,20.934,0,0,0,4-4.781c.873-1.455,1.6-3.634,1.311-4.762a.857.857,0,0,0-.4-.588A1.215,1.215,0,0,0,1085.828,197.029Z" transform="translate(-488.025 42.778)" fill="#fff"/>
  </g>
</svg>
